# Blender v2.90.0 OBJ File: ''
# www.blender.org
mtllib multicube.mtl
o Cube
v 7.707234 -0.017919 -7.707234
v 7.707234 0.017919 -7.707234
v 7.707234 -0.017919 7.707234
v 7.707234 0.017919 7.707234
v -7.707234 -0.017919 -7.707234
v -7.707234 0.017919 -7.707234
v -7.707234 -0.017919 7.707234
v -7.707234 0.017919 7.707234
vt 0.625000 0.500000
vt 0.625000 0.750000
vt 0.875000 0.750000
vt 0.875000 0.500000
vt 0.375000 0.750000
vt 0.375000 1.000000
vt 0.625000 1.000000
vt 0.375000 0.000000
vt 0.375000 0.250000
vt 0.625000 0.250000
vt 0.625000 0.000000
vt 0.125000 0.500000
vt 0.125000 0.750000
vt 0.375000 0.500000
vn 0.0000 -1.0000 0.0000
vn 0.0000 0.0000 1.0000
vn -1.0000 0.0000 0.0000
vn 0.0000 1.0000 0.0000
vn 1.0000 0.0000 0.0000
vn 0.0000 0.0000 -1.0000
usemtl Material
s off
f 1/1/1 3/2/1 7/3/1 5/4/1
f 4/5/2 8/6/2 7/7/2 3/2/2
f 8/8/3 6/9/3 5/10/3 7/11/3
f 6/12/4 8/13/4 4/5/4 2/14/4
f 2/14/5 4/5/5 3/2/5 1/1/5
f 6/9/6 2/14/6 1/1/6 5/10/6
o Cube.002
v -0.506863 0.042475 -0.019594
v -0.506863 0.778674 -0.019594
v -0.417244 0.042475 -0.066423
v -0.417244 0.778674 -0.066423
v -0.461916 0.042475 0.066423
v -0.461916 0.778674 0.066423
v -0.372296 0.042475 0.019594
v -0.372296 0.778674 0.019594
vt 0.375000 0.000000
vt 0.625000 0.000000
vt 0.625000 0.250000
vt 0.375000 0.250000
vt 0.625000 0.500000
vt 0.375000 0.500000
vt 0.625000 0.750000
vt 0.375000 0.750000
vt 0.625000 1.000000
vt 0.375000 1.000000
vt 0.125000 0.500000
vt 0.125000 0.750000
vt 0.875000 0.500000
vt 0.875000 0.750000
vn -0.4631 0.0000 -0.8863
vn 0.8863 0.0000 -0.4631
vn 0.4631 0.0000 0.8863
vn -0.8863 0.0000 0.4631
vn 0.0000 -1.0000 0.0000
vn 0.0000 1.0000 0.0000
usemtl Material.002
s off
f 9/15/7 10/16/7 12/17/7 11/18/7
f 11/18/8 12/17/8 16/19/8 15/20/8
f 15/20/9 16/19/9 14/21/9 13/22/9
f 13/22/10 14/21/10 10/23/10 9/24/10
f 11/25/11 15/20/11 13/22/11 9/26/11
f 16/19/12 12/27/12 10/28/12 14/21/12
o Cube.001_Cube.003
v 0.018056 0.042475 -0.019594
v 0.018056 0.778674 -0.019594
v 0.107676 0.042475 -0.066423
v 0.107676 0.778674 -0.066423
v 0.063004 0.042475 0.066423
v 0.063004 0.778674 0.066423
v 0.152623 0.042475 0.019594
v 0.152623 0.778674 0.019594
vt 0.375000 0.000000
vt 0.625000 0.000000
vt 0.625000 0.250000
vt 0.375000 0.250000
vt 0.625000 0.500000
vt 0.375000 0.500000
vt 0.625000 0.750000
vt 0.375000 0.750000
vt 0.625000 1.000000
vt 0.375000 1.000000
vt 0.125000 0.500000
vt 0.125000 0.750000
vt 0.875000 0.500000
vt 0.875000 0.750000
vn -0.4631 0.0000 -0.8863
vn 0.8863 0.0000 -0.4631
vn 0.4631 0.0000 0.8863
vn -0.8863 0.0000 0.4631
vn 0.0000 -1.0000 -0.0000
vn 0.0000 1.0000 0.0000
usemtl Material.003
s off
f 17/29/13 18/30/13 20/31/13 19/32/13
f 19/32/14 20/31/14 24/33/14 23/34/14
f 23/34/15 24/33/15 22/35/15 21/36/15
f 21/36/16 22/35/16 18/37/16 17/38/16
f 19/39/17 23/34/17 21/36/17 17/40/17
f 24/33/18 20/41/18 18/42/18 22/35/18
o Cube.003_Cube.004
v 0.218531 0.766620 -0.025662
v -0.507838 0.754338 0.093614
v 0.202353 0.795488 -0.121211
v -0.524016 0.783206 -0.001935
v 0.221490 0.859619 0.001935
v -0.504879 0.847337 0.121211
v 0.205312 0.888487 -0.093614
v -0.521057 0.876205 0.025662
vt 0.375000 0.000000
vt 0.625000 0.000000
vt 0.625000 0.250000
vt 0.375000 0.250000
vt 0.625000 0.500000
vt 0.375000 0.500000
vt 0.625000 0.750000
vt 0.375000 0.750000
vt 0.625000 1.000000
vt 0.375000 1.000000
vt 0.125000 0.500000
vt 0.125000 0.750000
vt 0.875000 0.500000
vt 0.875000 0.750000
vn -0.0305 -0.9582 -0.2844
vn -0.1600 0.2855 -0.9449
vn 0.0305 0.9582 0.2844
vn 0.1600 -0.2855 0.9449
vn 0.9866 0.0167 -0.1620
vn -0.9866 -0.0167 0.1620
usemtl Material.004
s off
f 25/43/19 26/44/19 28/45/19 27/46/19
f 27/46/20 28/45/20 32/47/20 31/48/20
f 31/48/21 32/47/21 30/49/21 29/50/21
f 29/50/22 30/49/22 26/51/22 25/52/22
f 27/53/23 31/48/23 29/50/23 25/54/23
f 32/47/24 28/55/24 26/56/24 30/49/24
